<svg width="12" height="13" viewBox="0 0 12 13" fill="none" xmlns="http://www.w3.org/2000/svg">
<g opacity="0.4">
<path d="M8.35449 10.5612L11 11.1492L10.412 8.50367C10.7992 7.77936 11.0012 6.97049 11 6.14917C11 3.38767 8.76149 1.14917 5.99999 1.14917C3.23849 1.14917 0.999994 3.38767 0.999994 6.14917C0.999994 8.91067 3.23849 11.1492 5.99999 11.1492C6.82132 11.1504 7.63019 10.9484 8.35449 10.5612ZM8.20949 9.50467L7.88299 9.67967C7.30372 9.98924 6.6568 10.1505 5.99999 10.1492C5.20887 10.1492 4.43551 9.91457 3.77771 9.47505C3.11992 9.03552 2.60723 8.41081 2.30448 7.6799C2.00173 6.949 1.92251 6.14473 2.07685 5.36881C2.23119 4.59288 2.61216 3.88015 3.17157 3.32074C3.73098 2.76133 4.44371 2.38037 5.21963 2.22603C5.99556 2.07169 6.79982 2.1509 7.53073 2.45365C8.26163 2.7564 8.88635 3.26909 9.32587 3.92689C9.7654 4.58469 9.99999 5.35804 9.99999 6.14917C9.99999 6.81617 9.83749 7.45817 9.52999 8.03217L9.35549 8.35867L9.68299 9.83217L8.20949 9.50467Z" fill="black"/>
</g>
</svg>
