<svg width="24" height="24" viewBox="0 0 24 24" fill="none" xmlns="http://www.w3.org/2000/svg">
<path d="M14 1.99951H6C5.46957 1.99951 4.96086 2.21023 4.58579 2.5853C4.21071 2.96037 4 3.46908 4 3.99951V19.9995C4 20.5299 4.21071 21.0387 4.58579 21.4137C4.96086 21.7888 5.46957 21.9995 6 21.9995H18C18.5304 21.9995 19.0391 21.7888 19.4142 21.4137C19.7893 21.0387 20 20.5299 20 19.9995V7.99951L14 1.99951Z" stroke="black" stroke-width="2" stroke-linecap="round" stroke-linejoin="round"/>
<path d="M14 1.99951V7.99951H20" stroke="black" stroke-width="2" stroke-linecap="round" stroke-linejoin="round"/>
<path d="M16 12.9995H8" stroke="black" stroke-width="2" stroke-linecap="round" stroke-linejoin="round"/>
<path d="M16 16.9995H8" stroke="black" stroke-width="2" stroke-linecap="round" stroke-linejoin="round"/>
<path d="M10 8.99951H9H8" stroke="black" stroke-width="2" stroke-linecap="round" stroke-linejoin="round"/>
</svg>
