<svg width="86" height="29" viewBox="0 0 86 29" fill="none" xmlns="http://www.w3.org/2000/svg">
<path d="M79.967 1.80125C81.4838 1.80125 82.5131 2.09003 83.1136 2.68422C83.7139 3.27807 84.0058 4.29848 84.0058 5.80363V23.7546C84.0058 25.2554 83.7151 26.2701 83.1171 26.8567C82.5188 27.4439 81.4884 27.7292 79.9674 27.7292H5.97672C4.4652 27.7292 3.44641 27.4463 2.86228 26.8644C2.27814 26.2825 1.99422 25.2668 1.99422 23.7593V5.80363C1.99422 4.07793 2.18259 3.1274 2.62405 2.62521C3.11828 2.06311 4.18518 1.80125 5.98179 1.80125H79.967ZM79.967 0.637817H5.98179C1.56596 0.637817 0.830933 2.16699 0.830933 5.80363V23.7593C0.830933 27.3932 2.34337 28.8927 5.97672 28.8927H79.9673C83.6033 28.8927 85.1691 27.3911 85.1691 23.7546V5.80363C85.1691 2.16699 83.6031 0.637817 79.967 0.637817Z" fill="black"/>
<path d="M42.2667 16.8436C40.7091 16.8436 39.476 18.012 39.476 19.6347C39.476 21.1925 40.7091 22.4259 42.2667 22.4259C43.8244 22.4259 45.0575 21.2574 45.0575 19.6347C45.0575 17.9471 43.8244 16.8436 42.2667 16.8436ZM42.2667 21.2574C41.423 21.2574 40.7091 20.5434 40.7091 19.5698C40.7091 18.5961 41.423 17.8821 42.2667 17.8821C43.1105 17.8821 43.8244 18.5313 43.8244 19.5698C43.8244 20.5434 43.1105 21.2574 42.2667 21.2574ZM36.231 16.8436C34.6733 16.8436 33.4401 18.012 33.4401 19.6347C33.4401 21.1925 34.6733 22.4259 36.231 22.4259C37.7886 22.4259 39.0217 21.2574 39.0217 19.6347C39.0217 17.9471 37.7886 16.8436 36.231 16.8436ZM36.231 21.2574C35.3872 21.2574 34.6733 20.5434 34.6733 19.5698C34.6733 18.5961 35.3872 17.8821 36.231 17.8821C37.0747 17.8821 37.7886 18.5313 37.7886 19.5698C37.7886 20.5434 37.0747 21.2574 36.231 21.2574ZM29.0268 17.6874V18.8558H31.8176C31.7527 19.505 31.4931 20.0243 31.1686 20.3488C30.7792 20.7383 30.1302 21.1925 29.0268 21.1925C27.2745 21.1925 25.9765 19.8295 25.9765 18.0769C25.9765 16.3243 27.3394 14.9613 29.0268 14.9613C29.9355 14.9613 30.6493 15.3508 31.1686 15.805L32.0123 14.9613C31.2984 14.3121 30.3898 13.7928 29.0917 13.7928C26.7553 13.7928 24.7433 15.7402 24.7433 18.0769C24.7433 20.4136 26.7552 22.361 29.0917 22.361C30.3898 22.361 31.2984 21.9715 32.0772 21.1276C32.856 20.3488 33.1157 19.2454 33.1157 18.4015C33.1157 18.1418 33.1157 17.8822 33.0508 17.6874H29.0268ZM58.4921 18.5962C58.2326 17.9471 57.5835 16.8436 56.1557 16.8436C54.7278 16.8436 53.5597 17.9471 53.5597 19.6347C53.5597 21.1925 54.7278 22.4259 56.2855 22.4259C57.5187 22.4259 58.2976 21.6469 58.557 21.1925L57.6484 20.5434C57.3239 20.9978 56.9345 21.3223 56.2855 21.3223C55.6365 21.3223 55.2471 21.0627 54.9226 20.4785L58.6219 18.9207L58.4921 18.5962ZM54.7278 19.5049C54.7278 18.4664 55.5716 17.8822 56.1558 17.8822C56.61 17.8822 57.0644 18.1418 57.1942 18.4664L54.7278 19.5049ZM51.6775 22.1662H52.9107V14.0525H51.6775V22.1662ZM49.7305 17.4278C49.4059 17.1032 48.8867 16.7786 48.2377 16.7786C46.8748 16.7786 45.5767 18.012 45.5767 19.5698C45.5767 21.1276 46.8099 22.2961 48.2377 22.2961C48.8867 22.2961 49.4059 21.9715 49.6656 21.6469H49.7305V22.0364C49.7305 23.075 49.1463 23.6591 48.2377 23.6591C47.5238 23.6591 47.0045 23.1399 46.8748 22.6854L45.8364 23.1399C46.1608 23.8539 46.9397 24.7625 48.3027 24.7625C49.7305 24.7625 50.8986 23.9188 50.8986 21.9065V16.9734H49.7305V17.4278ZM48.3026 21.2574C47.4589 21.2574 46.745 20.5434 46.745 19.5698C46.745 18.5961 47.4589 17.8821 48.3026 17.8821C49.1462 17.8821 49.7954 18.5961 49.7954 19.5698C49.7954 20.5434 49.1463 21.2574 48.3026 21.2574ZM64.1386 14.0525H61.218V22.1662H62.4511V19.1155H64.1386C65.5014 19.1155 66.7994 18.1418 66.7994 16.5839C66.7994 15.0261 65.5015 14.0525 64.1386 14.0525ZM64.2035 17.9471H62.4511V15.156H64.2035C65.1122 15.156 65.6314 15.9349 65.6314 16.5189C65.5664 17.233 65.0472 17.9471 64.2035 17.9471ZM71.6672 16.7787C70.7585 16.7787 69.8499 17.1682 69.5255 18.012L70.6287 18.4664C70.8884 18.012 71.2778 17.8822 71.7321 17.8822C72.381 17.8822 72.9652 18.2718 73.0301 18.9208V18.9857C72.8354 18.8558 72.3161 18.6612 71.797 18.6612C70.6286 18.6612 69.4605 19.3104 69.4605 20.4786C69.4605 21.5821 70.434 22.2961 71.4724 22.2961C72.3161 22.2961 72.7056 21.9066 73.0301 21.5172H73.0949V22.1663H74.2632V19.0507C74.1335 17.6225 73.0301 16.7787 71.6672 16.7787ZM71.5373 21.2574C71.1479 21.2574 70.5637 21.0627 70.5637 20.5434C70.5637 19.8943 71.2777 19.6996 71.8618 19.6996C72.381 19.6996 72.6406 19.8295 72.9651 19.9593C72.8354 20.7382 72.1863 21.2574 71.5373 21.2574ZM78.352 16.9734L76.989 20.4785H76.9242L75.4964 16.9734H74.1983L76.3401 21.9065L75.1069 24.6328H76.3401L79.6501 16.9734H78.352ZM67.4485 22.1662H68.6817V14.0525H67.4485V22.1662Z" fill="black"/>
<path d="M27.0068 9.23291H29.0289C29.0405 9.27903 29.05 9.33471 29.0578 9.40002C29.0653 9.46534 29.0692 9.53066 29.0692 9.5959C29.0692 9.86099 29.0289 10.1107 28.9483 10.3449C28.8677 10.5792 28.7409 10.7886 28.568 10.9729C28.3837 11.1689 28.1628 11.3207 27.9055 11.4281C27.6482 11.5356 27.3544 11.5894 27.0241 11.5894C26.7246 11.5894 26.4422 11.5356 26.1772 11.4281C25.9123 11.3207 25.6818 11.1709 25.4859 10.9787C25.29 10.7867 25.1345 10.5591 25.0193 10.296C24.904 10.0329 24.8464 9.74573 24.8464 9.4346C24.8464 9.12346 24.904 8.83634 25.0193 8.57324C25.1345 8.31013 25.29 8.08252 25.4859 7.89038C25.6818 7.69842 25.9123 7.54858 26.1772 7.44105C26.4422 7.33351 26.7246 7.27966 27.0241 7.27966C27.3582 7.27966 27.6569 7.33725 27.9199 7.45252C28.183 7.56778 28.4087 7.72717 28.5969 7.93077L28.0611 8.45507C27.9266 8.31304 27.7768 8.20443 27.6117 8.12955C27.4465 8.05459 27.2488 8.0172 27.0184 8.0172C26.8302 8.0172 26.6515 8.05085 26.4825 8.118C26.3135 8.18523 26.1657 8.2803 26.039 8.40321C25.9123 8.5262 25.8114 8.67504 25.7365 8.84972C25.6616 9.02457 25.6242 9.21953 25.6242 9.4346C25.6242 9.64975 25.6616 9.84462 25.7365 10.0194C25.8114 10.1942 25.9131 10.343 26.0419 10.4659C26.1705 10.5889 26.3193 10.684 26.4883 10.7512C26.6573 10.8184 26.8377 10.852 27.0298 10.852C27.2488 10.852 27.4341 10.8203 27.5858 10.7569C27.7375 10.6935 27.8672 10.612 27.9747 10.512C28.0515 10.4429 28.1177 10.3555 28.1734 10.2498C28.229 10.1443 28.2722 10.0261 28.3031 9.89548H27.0068V9.23291Z" fill="black"/>
<path d="M30.4923 8.10936V9.06579H32.1456V9.80332H30.4923V10.7598H32.33V11.4973H29.7145V7.37183H32.33V8.10936H30.4923Z" fill="black"/>
<path d="M33.92 11.4973V8.10936H32.7678V7.37183H35.85V8.10936H34.6977V11.4973H33.92Z" fill="black"/>
<path d="M38.4481 7.37183H37.6703V11.4973H38.4481V7.37183Z" fill="black"/>
<path d="M40.1533 11.4973V8.10936H39.001V7.37183H42.0832V8.10936H40.931V11.4973H40.1533Z" fill="black"/>
<path d="M45.7414 11.5895C45.4341 11.5895 45.1489 11.5338 44.8859 11.4224C44.6227 11.311 44.3953 11.1584 44.2032 10.9643C44.0111 10.7704 43.8604 10.5419 43.751 10.2787C43.6416 10.0156 43.5867 9.73418 43.5867 9.4346C43.5867 9.13493 43.6415 8.85362 43.751 8.59052C43.8605 8.32742 44.0112 8.09889 44.2032 7.90484C44.3953 7.71088 44.6227 7.55822 44.8859 7.44678C45.1489 7.33542 45.4341 7.27966 45.7414 7.27966C46.0486 7.27966 46.3338 7.33542 46.597 7.44678C46.86 7.55822 47.0875 7.71088 47.2797 7.90484C47.4717 8.09889 47.6224 8.32742 47.7319 8.59052C47.8413 8.85362 47.8961 9.13493 47.8961 9.4346C47.8961 9.73418 47.8414 10.0156 47.7319 10.2787C47.6224 10.5419 47.4716 10.7704 47.2797 10.9643C47.0875 11.1584 46.86 11.311 46.597 11.4224C46.3338 11.5338 46.0486 11.5895 45.7414 11.5895ZM45.7414 10.852C45.9335 10.852 46.1131 10.8174 46.28 10.7483C46.4471 10.6791 46.5931 10.5832 46.7179 10.4602C46.8427 10.3373 46.9407 10.1885 47.0117 10.0137C47.0827 9.83889 47.1183 9.64584 47.1183 9.4346C47.1183 9.22335 47.0827 9.03038 47.0117 8.85554C46.9407 8.68077 46.8427 8.53202 46.7179 8.40903C46.5931 8.28612 46.4471 8.19005 46.28 8.12091C46.113 8.05177 45.9334 8.0172 45.7414 8.0172C45.5494 8.0172 45.3698 8.05177 45.2028 8.12091C45.0357 8.19005 44.8897 8.28612 44.7649 8.40903C44.64 8.53202 44.5421 8.68077 44.4712 8.85554C44.4 9.03038 44.3646 9.22335 44.3646 9.4346C44.3646 9.64584 44.4 9.83889 44.4712 10.0137C44.5421 10.1885 44.64 10.3373 44.7649 10.4602C44.8897 10.5832 45.0357 10.6791 45.2028 10.7483C45.3699 10.8174 45.5494 10.852 45.7414 10.852Z" fill="black"/>
<path d="M48.5239 7.37183H49.4284L51.0876 10.1375H51.1337L51.0876 9.34235V7.37183H51.8596V11.4973H51.0414L49.2901 8.57606H49.244L49.2901 9.37119V11.4973H48.5239V7.37183Z" fill="black"/>
<path fill-rule="evenodd" clip-rule="evenodd" d="M18.84 12.2773L8.74469 6.46826L16.719 14.4024L18.84 12.2773Z" fill="black"/>
<path fill-rule="evenodd" clip-rule="evenodd" d="M7.80797 6.52759C7.7695 6.59756 7.72754 6.67842 7.72754 6.7675V23.2057C7.72754 23.2572 7.75438 23.3058 7.76817 23.3515L16.2131 14.8904L7.80797 6.52759Z" fill="black"/>
<path fill-rule="evenodd" clip-rule="evenodd" d="M16.7207 15.3765L8.44122 23.6718C8.4654 23.6624 8.48942 23.6516 8.51293 23.6381L18.9741 17.6184L16.7207 15.3765Z" fill="black"/>
<path fill-rule="evenodd" clip-rule="evenodd" d="M22.7966 14.554L19.4586 12.6333L17.2076 14.8886L19.5933 17.2623L22.7966 15.4191C23.1301 15.2273 23.1301 14.7459 22.7966 14.554Z" fill="black"/>
</svg>
