<svg width="116" height="27" viewBox="0 0 116 27" fill="none" xmlns="http://www.w3.org/2000/svg">
<line x1="2" y1="5.72363" x2="2" y2="21.7236" stroke="url(#paint0_linear_79_371)" stroke-width="4" stroke-linecap="round"/>
<line x1="12" y1="7.72363" x2="12" y2="19.7236" stroke="url(#paint1_linear_79_371)" stroke-width="4" stroke-linecap="round"/>
<line x1="22" y1="9.72363" x2="22" y2="17.7236" stroke="url(#paint2_linear_79_371)" stroke-width="4" stroke-linecap="round"/>
<path d="M40.8389 17.8779C40.8389 17.4482 40.7673 17.0651 40.624 16.7285C40.4808 16.3919 40.2445 16.0911 39.915 15.8262C39.5928 15.554 39.1559 15.3034 38.6045 15.0742C38.0602 14.8379 37.3799 14.6051 36.5635 14.376C35.7829 14.154 35.0775 13.9105 34.4473 13.6455C33.8171 13.3805 33.2764 13.0762 32.8252 12.7324C32.3812 12.3887 32.041 11.9876 31.8047 11.5293C31.5684 11.0638 31.4502 10.5231 31.4502 9.90723C31.4502 9.30566 31.5791 8.75781 31.8369 8.26367C32.0947 7.76953 32.4564 7.34342 32.9219 6.98535C33.3945 6.62728 33.9495 6.35156 34.5869 6.1582C35.2314 5.96484 35.9368 5.86816 36.7031 5.86816C37.7988 5.86816 38.7441 6.07585 39.5391 6.49121C40.3411 6.90658 40.9606 7.46875 41.3975 8.17773C41.8415 8.87956 42.0635 9.66732 42.0635 10.541H40.7422C40.7422 9.86068 40.5811 9.25553 40.2588 8.72559C39.9437 8.18848 39.4854 7.76953 38.8838 7.46875C38.2894 7.16081 37.5625 7.00684 36.7031 7.00684C35.8438 7.00684 35.1204 7.13932 34.5332 7.4043C33.9531 7.66211 33.5127 8.00944 33.2119 8.44629C32.9183 8.87598 32.7715 9.35579 32.7715 9.88574C32.7715 10.2581 32.8431 10.6019 32.9863 10.917C33.1296 11.2249 33.3623 11.515 33.6846 11.7871C34.014 12.0521 34.4473 12.3027 34.9844 12.5391C35.5215 12.7682 36.1839 12.9867 36.9717 13.1943C37.8024 13.4235 38.54 13.6777 39.1846 13.957C39.8291 14.2363 40.3734 14.5586 40.8174 14.9238C41.2614 15.2819 41.598 15.7008 41.8271 16.1807C42.0563 16.6605 42.1709 17.2191 42.1709 17.8564C42.1709 18.4938 42.0348 19.0667 41.7627 19.5752C41.4977 20.0765 41.1217 20.5026 40.6348 20.8535C40.1549 21.2044 39.5856 21.473 38.9268 21.6592C38.2751 21.8454 37.5625 21.9385 36.7891 21.9385C36.0944 21.9385 35.4033 21.849 34.7158 21.6699C34.0283 21.4909 33.3981 21.2152 32.8252 20.8428C32.2594 20.4632 31.8047 19.9762 31.4609 19.3818C31.1243 18.7874 30.9561 18.0785 30.9561 17.2549H32.2666C32.2666 17.9137 32.3991 18.4688 32.6641 18.9199C32.929 19.3711 33.2799 19.7363 33.7168 20.0156C34.1608 20.2949 34.6478 20.499 35.1777 20.6279C35.7148 20.7497 36.252 20.8105 36.7891 20.8105C37.6126 20.8105 38.3252 20.6888 38.9268 20.4453C39.5355 20.2018 40.0046 19.8617 40.334 19.4248C40.6706 18.9808 40.8389 18.4652 40.8389 17.8779ZM46.1562 10.1006V21.7236H44.8779V10.1006H46.1562ZM44.6523 6.73828C44.6523 6.49479 44.7275 6.29069 44.8779 6.12598C45.0355 5.9541 45.2503 5.86816 45.5225 5.86816C45.7946 5.86816 46.0094 5.9541 46.167 6.12598C46.3317 6.29069 46.4141 6.49479 46.4141 6.73828C46.4141 6.97461 46.3317 7.17871 46.167 7.35059C46.0094 7.5153 45.7946 7.59766 45.5225 7.59766C45.2503 7.59766 45.0355 7.5153 44.8779 7.35059C44.7275 7.17871 44.6523 6.97461 44.6523 6.73828ZM54.0625 10.1006V11.1533H48.2402V10.1006H54.0625ZM50.3779 7.11426H51.6562V18.8984C51.6562 19.4355 51.7279 19.8402 51.8711 20.1123C52.0143 20.3844 52.2005 20.5671 52.4297 20.6602C52.6589 20.7533 52.9059 20.7998 53.1709 20.7998C53.3643 20.7998 53.5505 20.7891 53.7295 20.7676C53.9085 20.7389 54.0697 20.7103 54.2129 20.6816L54.2666 21.7666C54.109 21.8167 53.9049 21.8561 53.6543 21.8848C53.4036 21.9206 53.153 21.9385 52.9023 21.9385C52.4082 21.9385 51.9714 21.849 51.5918 21.6699C51.2122 21.4837 50.915 21.1686 50.7002 20.7246C50.4854 20.2734 50.3779 19.6611 50.3779 18.8877V7.11426ZM61.249 21.9385C60.4899 21.9385 59.7917 21.7988 59.1543 21.5195C58.5241 21.2402 57.9727 20.8464 57.5 20.3379C57.0345 19.8294 56.6729 19.2279 56.415 18.5332C56.1644 17.8314 56.0391 17.0651 56.0391 16.2344V15.7725C56.0391 14.8773 56.1715 14.068 56.4365 13.3447C56.7015 12.6214 57.0667 12.002 57.5322 11.4863C57.9977 10.9707 58.5277 10.5768 59.1221 10.3047C59.7236 10.0254 60.3538 9.88574 61.0127 9.88574C61.7503 9.88574 62.4056 10.0182 62.9785 10.2832C63.5514 10.541 64.0312 10.9098 64.418 11.3896C64.8118 11.8623 65.109 12.4245 65.3096 13.0762C65.5101 13.7207 65.6104 14.4333 65.6104 15.2139V15.998H56.8125V14.9023H64.332V14.752C64.3177 14.1003 64.1852 13.4915 63.9346 12.9258C63.6911 12.3529 63.3258 11.8874 62.8389 11.5293C62.3519 11.1712 61.7432 10.9922 61.0127 10.9922C60.4684 10.9922 59.9671 11.1068 59.5088 11.3359C59.0576 11.5651 58.6673 11.8945 58.3379 12.3242C58.0156 12.7467 57.765 13.2516 57.5859 13.8389C57.4141 14.4189 57.3281 15.0635 57.3281 15.7725V16.2344C57.3281 16.8789 57.4212 17.4805 57.6074 18.0391C57.8008 18.5905 58.0729 19.0775 58.4238 19.5C58.7819 19.9225 59.2044 20.252 59.6914 20.4883C60.1784 20.7246 60.7155 20.8428 61.3027 20.8428C61.9902 20.8428 62.599 20.7174 63.1289 20.4668C63.6589 20.209 64.1351 19.8044 64.5576 19.2529L65.3633 19.876C65.1126 20.2484 64.7975 20.5921 64.418 20.9072C64.0456 21.2223 63.598 21.473 63.0752 21.6592C62.5524 21.8454 61.9437 21.9385 61.249 21.9385ZM77.8457 19.5859V21.7236H69.9932V19.5859H77.8457ZM70.7451 6.08301V21.7236H68.0488V6.08301H70.7451ZM79.1777 16.041V15.7939C79.1777 14.9561 79.2995 14.179 79.543 13.4629C79.7865 12.7396 80.1374 12.113 80.5957 11.583C81.0612 11.0459 81.627 10.6305 82.293 10.3369C82.9661 10.0361 83.7253 9.88574 84.5703 9.88574C85.4225 9.88574 86.1816 10.0361 86.8477 10.3369C87.5208 10.6305 88.0902 11.0459 88.5557 11.583C89.0212 12.113 89.3757 12.7396 89.6191 13.4629C89.8626 14.179 89.9844 14.9561 89.9844 15.7939V16.041C89.9844 16.8789 89.8626 17.6559 89.6191 18.3721C89.3757 19.0882 89.0212 19.7148 88.5557 20.252C88.0902 20.7819 87.5244 21.1973 86.8584 21.498C86.1924 21.7917 85.4368 21.9385 84.5918 21.9385C83.7396 21.9385 82.9769 21.7917 82.3037 21.498C81.6377 21.1973 81.0719 20.7819 80.6064 20.252C80.141 19.7148 79.7865 19.0882 79.543 18.3721C79.2995 17.6559 79.1777 16.8789 79.1777 16.041ZM81.7666 15.7939V16.041C81.7666 16.5638 81.8203 17.0579 81.9277 17.5234C82.0352 17.9889 82.2035 18.3971 82.4326 18.748C82.6618 19.099 82.9554 19.3747 83.3135 19.5752C83.6715 19.7757 84.0977 19.876 84.5918 19.876C85.0716 19.876 85.487 19.7757 85.8379 19.5752C86.196 19.3747 86.4896 19.099 86.7188 18.748C86.9479 18.3971 87.1162 17.9889 87.2236 17.5234C87.3382 17.0579 87.3955 16.5638 87.3955 16.041V15.7939C87.3955 15.2783 87.3382 14.7913 87.2236 14.333C87.1162 13.8675 86.9443 13.4557 86.708 13.0977C86.4788 12.7396 86.1852 12.4603 85.8271 12.2598C85.4762 12.0521 85.0573 11.9482 84.5703 11.9482C84.0833 11.9482 83.6608 12.0521 83.3027 12.2598C82.9518 12.4603 82.6618 12.7396 82.4326 13.0977C82.2035 13.4557 82.0352 13.8675 81.9277 14.333C81.8203 14.7913 81.7666 15.2783 81.7666 15.7939ZM99.5986 10.1006H101.951V21.4014C101.951 22.4469 101.729 23.335 101.285 24.0654C100.841 24.7959 100.222 25.3509 99.4268 25.7305C98.6318 26.1172 97.7116 26.3105 96.666 26.3105C96.222 26.3105 95.7279 26.2461 95.1836 26.1172C94.6465 25.9883 94.1237 25.7806 93.6152 25.4941C93.1139 25.2148 92.695 24.846 92.3584 24.3877L93.5723 22.8623C93.9876 23.3564 94.446 23.7181 94.9473 23.9473C95.4486 24.1764 95.9749 24.291 96.5264 24.291C97.1208 24.291 97.6257 24.18 98.041 23.958C98.4635 23.7432 98.7894 23.4245 99.0186 23.002C99.2477 22.5794 99.3623 22.0638 99.3623 21.4551V12.7324L99.5986 10.1006ZM91.7031 16.041V15.8154C91.7031 14.9346 91.8105 14.1325 92.0254 13.4092C92.2402 12.6787 92.5482 12.0521 92.9492 11.5293C93.3503 10.9993 93.8372 10.5947 94.4102 10.3154C94.9831 10.029 95.6312 9.88574 96.3545 9.88574C97.1064 9.88574 97.7474 10.0218 98.2773 10.2939C98.8145 10.5661 99.262 10.9564 99.6201 11.4648C99.9782 11.9661 100.257 12.5677 100.458 13.2695C100.666 13.9642 100.82 14.7376 100.92 15.5898V16.3096C100.827 17.1403 100.669 17.8994 100.447 18.5869C100.225 19.2744 99.9316 19.8688 99.5664 20.3701C99.2012 20.8714 98.75 21.2581 98.2129 21.5303C97.6829 21.8024 97.0563 21.9385 96.333 21.9385C95.624 21.9385 94.9831 21.7917 94.4102 21.498C93.8444 21.2044 93.3574 20.7926 92.9492 20.2627C92.5482 19.7327 92.2402 19.1097 92.0254 18.3936C91.8105 17.6702 91.7031 16.8861 91.7031 16.041ZM94.292 15.8154V16.041C94.292 16.571 94.3421 17.0651 94.4424 17.5234C94.5498 17.9818 94.7109 18.3864 94.9258 18.7373C95.1478 19.0811 95.4271 19.3532 95.7637 19.5537C96.1074 19.7471 96.512 19.8438 96.9775 19.8438C97.5863 19.8438 98.084 19.7148 98.4707 19.457C98.8646 19.1992 99.1654 18.8519 99.373 18.415C99.5879 17.971 99.7383 17.4769 99.8242 16.9326V14.9883C99.7812 14.5658 99.6917 14.1719 99.5557 13.8066C99.4268 13.4414 99.2513 13.1227 99.0293 12.8506C98.8073 12.5713 98.528 12.3564 98.1914 12.2061C97.8548 12.0485 97.4574 11.9697 96.999 11.9697C96.5335 11.9697 96.1289 12.07 95.7852 12.2705C95.4414 12.471 95.1585 12.7467 94.9365 13.0977C94.7217 13.4486 94.5605 13.8568 94.4531 14.3223C94.3457 14.7878 94.292 15.2855 94.292 15.8154ZM104.143 16.041V15.7939C104.143 14.9561 104.264 14.179 104.508 13.4629C104.751 12.7396 105.102 12.113 105.561 11.583C106.026 11.0459 106.592 10.6305 107.258 10.3369C107.931 10.0361 108.69 9.88574 109.535 9.88574C110.387 9.88574 111.146 10.0361 111.812 10.3369C112.486 10.6305 113.055 11.0459 113.521 11.583C113.986 12.113 114.34 12.7396 114.584 13.4629C114.827 14.179 114.949 14.9561 114.949 15.7939V16.041C114.949 16.8789 114.827 17.6559 114.584 18.3721C114.34 19.0882 113.986 19.7148 113.521 20.252C113.055 20.7819 112.489 21.1973 111.823 21.498C111.157 21.7917 110.402 21.9385 109.557 21.9385C108.704 21.9385 107.942 21.7917 107.269 21.498C106.603 21.1973 106.037 20.7819 105.571 20.252C105.106 19.7148 104.751 19.0882 104.508 18.3721C104.264 17.6559 104.143 16.8789 104.143 16.041ZM106.731 15.7939V16.041C106.731 16.5638 106.785 17.0579 106.893 17.5234C107 17.9889 107.168 18.3971 107.397 18.748C107.627 19.099 107.92 19.3747 108.278 19.5752C108.636 19.7757 109.062 19.876 109.557 19.876C110.036 19.876 110.452 19.7757 110.803 19.5752C111.161 19.3747 111.454 19.099 111.684 18.748C111.913 18.3971 112.081 17.9889 112.188 17.5234C112.303 17.0579 112.36 16.5638 112.36 16.041V15.7939C112.36 15.2783 112.303 14.7913 112.188 14.333C112.081 13.8675 111.909 13.4557 111.673 13.0977C111.444 12.7396 111.15 12.4603 110.792 12.2598C110.441 12.0521 110.022 11.9482 109.535 11.9482C109.048 11.9482 108.626 12.0521 108.268 12.2598C107.917 12.4603 107.627 12.7396 107.397 13.0977C107.168 13.4557 107 13.8675 106.893 14.333C106.785 14.7913 106.731 15.2783 106.731 15.7939Z" fill="black"/>
<defs>
<linearGradient id="paint0_linear_79_371" x1="-0.5" y1="3.72363" x2="-0.5" y2="23.7236" gradientUnits="userSpaceOnUse">
<stop stop-color="#EC008C"/>
<stop offset="1" stop-color="#FC6767"/>
</linearGradient>
<linearGradient id="paint1_linear_79_371" x1="9.5" y1="5.72363" x2="9.5" y2="21.7236" gradientUnits="userSpaceOnUse">
<stop stop-color="#E65C00"/>
<stop offset="1" stop-color="#F9D423"/>
</linearGradient>
<linearGradient id="paint2_linear_79_371" x1="19.5" y1="7.72363" x2="19.5" y2="19.7236" gradientUnits="userSpaceOnUse">
<stop stop-color="#00D2FF"/>
<stop offset="1" stop-color="#3A7BD5"/>
</linearGradient>
</defs>
</svg>
