<svg width="86" height="29" viewBox="0 0 86 29" fill="none" xmlns="http://www.w3.org/2000/svg">
<path d="M79.9671 1.80125C81.4838 1.80125 82.5131 2.09003 83.1136 2.68422C83.7139 3.27807 84.0058 4.29848 84.0058 5.80363V23.7546C84.0058 25.2554 83.7151 26.2701 83.1171 26.8567C82.5188 27.4439 81.4884 27.7292 79.9674 27.7292H5.97672C4.4652 27.7292 3.44641 27.4463 2.86228 26.8644C2.27814 26.2825 1.99422 25.2668 1.99422 23.7593V5.80363C1.99422 4.07793 2.18259 3.1274 2.62405 2.62521C3.11828 2.06311 4.18518 1.80125 5.98179 1.80125H79.9671ZM79.9671 0.637817H5.98179C1.56596 0.637817 0.830933 2.16699 0.830933 5.80363V23.7593C0.830933 27.3932 2.34337 28.8927 5.97672 28.8927H79.9673C83.6033 28.8927 85.1691 27.3911 85.1691 23.7546V5.80363C85.1691 2.16699 83.6032 0.637817 79.9671 0.637817Z" fill="black"/>
<path fill-rule="evenodd" clip-rule="evenodd" d="M22.8193 18.2254C22.3946 19.1671 22.1913 19.5874 21.6444 20.4196C20.8811 21.5816 19.8058 23.0285 18.4732 23.0406C17.2888 23.0516 16.9847 22.2698 15.3776 22.2786C13.7706 22.2873 13.4349 23.0544 12.2504 23.0436C10.9177 23.0313 9.89858 21.7245 9.13538 20.5629C7.00142 17.314 6.77848 13.5011 8.09432 11.4743C9.02977 10.0337 10.5049 9.19046 11.8924 9.19046C13.3049 9.19046 14.1929 9.9653 15.3608 9.9653C16.4936 9.9653 17.1842 9.18921 18.8171 9.18921C20.0515 9.18921 21.3594 9.86126 22.2915 11.024C19.2381 12.6975 19.7339 17.0593 22.8193 18.2254Z" fill="black"/>
<path fill-rule="evenodd" clip-rule="evenodd" d="M17.5783 7.89147C18.1713 7.12992 18.6222 6.05391 18.4587 4.95471C17.4897 5.02144 16.3557 5.63815 15.6936 6.44216C15.0928 7.17222 14.5968 8.2548 14.79 9.30679C15.848 9.33953 16.9427 8.70754 17.5783 7.89147Z" fill="black"/>
<path fill-rule="evenodd" clip-rule="evenodd" d="M77.6386 19.7514H73.3481C73.365 20.3331 73.5725 20.8432 73.9711 21.1778C74.332 21.4787 74.7992 21.6159 75.3739 21.6159C76.0104 21.6159 76.5871 21.5081 77.1085 21.302L77.3334 22.2932C76.7267 22.5603 76.0057 22.6878 75.1741 22.6878C74.1787 22.6878 73.3951 22.3952 72.8257 21.8084C72.2568 21.2217 71.97 20.4332 71.97 19.4453C71.97 18.4724 72.236 17.6663 72.7642 17.019C73.323 16.3315 74.0731 15.9878 75.016 15.9878C75.9456 15.9878 76.6466 16.3313 77.1216 17.0188C77.4998 17.5677 77.6909 18.2708 77.6909 19.0744C77.6909 19.3284 77.6724 19.5852 77.6386 19.7514ZM71.5421 17.3904C71.459 17.3646 71.2385 17.354 71.0807 17.354C70.5777 17.354 70.1849 17.5435 69.9106 17.9225C69.6717 18.2586 69.5479 18.676 69.5479 19.1924V22.4938H68.1353V18.157C68.1353 17.4198 68.1047 16.7597 68.0795 16.0949H69.3237L69.3769 17.4245H69.416C69.5655 17.009 69.8025 16.6311 70.131 16.3772C70.4487 16.145 70.8056 16.0188 71.1761 16.0188C71.3071 16.0188 71.459 16.0106 71.5421 16.028V17.3904ZM66.3719 21.7365C65.7789 22.3881 64.9934 22.7144 64.0158 22.7144C63.0696 22.7144 62.3151 22.4012 61.7549 21.7743C61.1953 21.1493 60.9161 20.356 60.9161 19.4039C60.9161 18.4074 61.2045 17.5896 61.7825 16.955C62.3616 16.3168 63.1383 16.0034 64.1178 16.0034C65.0659 16.0034 65.8244 16.3134 66.3981 16.9434C66.9436 17.549 67.2174 18.3372 67.2174 19.2984C67.2175 20.29 66.937 21.099 66.3719 21.7365ZM60.4909 17.2583H58.9952V20.3326C58.9952 21.1266 59.2416 21.5201 59.7977 21.5201C60.0536 21.5201 60.2467 21.5014 60.416 21.4578L60.4482 22.5411C60.1651 22.6469 59.7909 22.7007 59.3319 22.7007C58.7697 22.7007 58.3103 22.5308 57.9935 22.184C57.6727 21.8414 57.4996 21.2624 57.4996 20.4502V17.2583H56.5856V16.0949H57.4996V14.955L58.9952 14.5311V16.0949H60.4909V17.2583ZM55.4648 21.9189C54.881 22.4405 54.0715 22.6997 53.0332 22.6997C52.0709 22.6997 51.3015 22.5135 50.7204 22.1443L51.0526 20.9528C51.6788 21.3219 52.3668 21.5092 53.1154 21.5092C53.6561 21.5092 54.0743 21.3861 54.3748 21.1452C54.6733 20.9033 54.8234 20.5791 54.8234 20.1679C54.8234 19.8109 54.6997 19.5061 54.4541 19.2574C54.2047 19.0108 53.7975 18.7829 53.2231 18.5691C51.6624 17.9881 50.8806 17.1362 50.8806 16.0153C50.8806 15.2828 51.1532 14.6806 51.7059 14.2132C52.2576 13.7465 52.9879 13.5117 53.8981 13.5117C54.7098 13.5117 55.3855 13.6541 55.9248 13.9346L55.5639 15.1005C55.0609 14.8276 54.4891 14.6892 53.8515 14.6892C53.3474 14.6892 52.9521 14.8175 52.6678 15.0589C52.43 15.2827 52.3106 15.5519 52.3106 15.8686C52.3106 16.2194 52.4476 16.5121 52.7206 16.7449C52.9597 16.9558 53.3924 17.184 54.0168 17.4309C54.7874 17.7375 55.3503 18.1017 55.7135 18.5179C56.0745 18.9325 56.2563 19.4481 56.2563 20.065C56.2561 20.8252 55.9906 21.4448 55.4648 21.9189ZM47.203 21.869C46.6701 22.4316 46.0053 22.7143 45.2144 22.7143C44.3628 22.7143 43.7894 22.4104 43.374 21.7989V25.2362H41.9614V18.2476C41.9614 17.5596 41.9351 16.9259 41.9007 16.0949H43.1551L43.2379 17.1752H43.2624C43.7424 16.4273 44.4635 16.0148 45.4345 16.0148C46.1941 16.0148 46.8274 16.3066 47.3347 16.9084C47.8435 17.5072 48.0967 18.2963 48.0967 19.2755C48.0967 20.3732 47.7996 21.2319 47.203 21.869ZM40.1335 21.869C39.6019 22.4316 38.9382 22.7143 38.1494 22.7143C37.2953 22.7143 36.7266 22.4104 36.3112 21.7989V25.2362H34.8986V18.2476C34.8986 17.5596 34.8659 16.9259 34.8295 16.0949H36.0874L36.1664 17.1752H36.1913C36.6705 16.4273 37.3931 16.0148 38.3654 16.0148C39.1244 16.0148 39.7561 16.3066 40.2667 16.9084C40.7724 17.5072 41.0271 18.2963 41.0271 19.2755C41.0271 20.3732 40.73 21.2319 40.1335 21.869ZM32.4866 22.4938L31.6534 19.9176H28.753L27.9574 22.4938H26.4761L29.3466 13.6018H31.1227L34.0105 22.4938H32.4866ZM74.9104 16.9791C74.4436 16.9791 74.0644 17.2183 73.7718 17.6044C73.5339 17.9126 73.3912 18.2555 73.3481 18.7542H76.3267C76.3346 18.2555 76.2441 17.9271 76.0501 17.6165C75.802 17.2207 75.4213 16.9791 74.9104 16.9791ZM30.1956 14.8483H30.1707C30.0808 15.2639 29.9415 15.8169 29.7455 16.5594L29.004 18.9204H31.3997L30.6482 16.5594C30.5668 16.32 30.4151 15.6794 30.1956 14.8483ZM44.9716 17.1382C44.6173 17.1382 44.3008 17.2543 44.0127 17.488C43.7258 17.7251 43.5324 18.0317 43.4436 18.4115C43.3996 18.5895 43.374 18.7338 43.374 18.8495V19.9204C43.374 20.3892 43.5202 20.7855 43.8083 21.1077C44.0945 21.4269 44.4706 21.589 44.9275 21.589C45.4689 21.589 45.8886 21.3829 46.1891 20.9669C46.4898 20.5517 46.6413 20.0047 46.6413 19.3231C46.6413 18.698 46.4993 18.1809 46.2178 17.776C45.9065 17.354 45.4915 17.1382 44.9716 17.1382ZM64.0656 17.0492C63.4934 17.0492 63.0561 17.3032 62.7577 17.8146C62.4989 18.2353 62.3721 18.7493 62.3721 19.3568C62.3721 19.9491 62.4988 20.4539 62.7577 20.8758C63.0634 21.3862 63.4963 21.6401 64.055 21.6401C64.5987 21.6401 65.0287 21.3827 65.3359 20.8598C65.6023 20.4327 65.7354 19.9203 65.7354 19.3321C65.7354 18.7433 65.6077 18.2353 65.3532 17.8145C65.049 17.3032 64.6224 17.0492 64.0656 17.0492ZM37.9001 17.1382C37.5477 17.1382 37.2293 17.2543 36.9416 17.488C36.654 17.7251 36.4663 18.0317 36.3775 18.4115C36.334 18.5895 36.3112 18.7338 36.3112 18.8495V19.9204C36.3112 20.3892 36.453 20.7855 36.7417 21.1077C37.028 21.4269 37.4021 21.589 37.8602 21.589C38.3975 21.589 38.82 21.3829 39.1196 20.9669C39.4196 20.5517 39.5684 20.0047 39.5684 19.3231C39.5684 18.698 39.429 18.1809 39.1462 17.776C38.8356 17.354 38.4215 17.1382 37.9001 17.1382Z" fill="black"/>
<path d="M28.3595 10.0983L27.9632 11.4037H27.0953L28.5714 6.79712H29.6443L31.1409 11.4037H30.2389L29.822 10.0983H28.3595ZM29.6785 9.46272L29.3163 8.32812C29.2275 8.0479 29.1523 7.73352 29.0839 7.46693H29.0703C29.0019 7.73352 28.9335 8.05479 28.8516 8.32812L28.4962 9.46272H29.6785Z" fill="black"/>
<path d="M32.0979 8.0752L32.6379 9.76334C32.7335 10.0573 32.8018 10.3239 32.8633 10.5972H32.8838C32.9453 10.3239 33.0205 10.0641 33.1093 9.76334L33.6356 8.0752H34.524L33.2528 11.4037H32.426L31.1891 8.0752H32.0979Z" fill="black"/>
<path d="M36.8683 11.4037L36.8136 11.0347H36.7931C36.5881 11.2943 36.2396 11.4789 35.8091 11.4789C35.1393 11.4789 34.7634 10.9937 34.7634 10.4878C34.7634 9.64726 35.5083 9.22344 36.7384 9.23025V9.17557C36.7384 8.95684 36.6496 8.5946 36.0619 8.5946C35.7339 8.5946 35.3922 8.69715 35.1667 8.84066L35.0026 8.29393C35.2487 8.14352 35.6792 8 36.2054 8C37.2715 8 37.579 8.67662 37.579 9.40119V10.6041C37.579 10.9048 37.5927 11.1987 37.6269 11.4037H36.8683ZM36.759 9.77706C36.1644 9.76335 35.5972 9.89324 35.5972 10.399C35.5972 10.7271 35.8091 10.8774 36.0755 10.8774C36.4104 10.8774 36.6564 10.6587 36.7316 10.4195C36.7521 10.358 36.759 10.2896 36.759 10.235V9.77706Z" fill="black"/>
<path d="M39.3151 6.55103H38.4677V11.4037H39.3151V6.55103Z" fill="black"/>
<path d="M41.1192 7.14572C41.1192 7.3986 40.9348 7.5968 40.6409 7.5968C40.3607 7.5968 40.1762 7.3986 40.1762 7.14572C40.1762 6.88603 40.3675 6.68774 40.6477 6.68774C40.9348 6.68774 41.1124 6.88603 41.1192 7.14572ZM40.224 8.07522H41.0714V11.4037H40.224V8.07522Z" fill="black"/>
<path d="M41.9464 11.4037C41.96 11.1782 41.9737 10.8091 41.9737 10.4674V6.55103H42.8142V8.53311H42.828C43.0329 8.21191 43.3951 8 43.894 8C44.7072 8 45.288 8.67662 45.2812 9.68823C45.2812 10.8843 44.5226 11.4789 43.7709 11.4789C43.3404 11.4789 42.9577 11.3149 42.7185 10.9048H42.7048L42.6638 11.4037H41.9464ZM42.8142 10.0299C42.8142 10.0983 42.8211 10.1667 42.8348 10.2281C42.9236 10.5631 43.2174 10.8159 43.5796 10.8159C44.1058 10.8159 44.4271 10.3922 44.4271 9.72239C44.4271 9.1346 44.1469 8.65618 43.5864 8.65618C43.2447 8.65618 42.9372 8.90225 42.8416 9.2713C42.828 9.3328 42.8142 9.40801 42.8142 9.49003V10.0299Z" fill="black"/>
<path d="M46.8191 6.55103H45.9717V11.4037H46.8191V6.55103Z" fill="black"/>
<path d="M48.3226 9.97526C48.3432 10.5768 48.8147 10.8365 49.3477 10.8365C49.7373 10.8365 50.0175 10.7818 50.2704 10.686L50.3934 11.267C50.1063 11.3833 49.7099 11.472 49.2317 11.472C48.1519 11.472 47.5162 10.8091 47.5162 9.79078C47.5162 8.86809 48.0766 8 49.1428 8C50.2225 8 50.5778 8.88853 50.5778 9.61983C50.5778 9.77706 50.5642 9.90006 50.5506 9.97526H48.3226ZM49.7851 9.38748C49.7919 9.07992 49.6553 8.57415 49.0948 8.57415C48.5754 8.57415 48.3568 9.04576 48.3226 9.38748H49.7851Z" fill="black"/>
<path d="M55.8333 9.70875C55.8333 10.9322 54.9722 11.4789 54.1247 11.4789C53.1816 11.4789 52.4573 10.8296 52.4573 9.76343C52.4573 8.66981 53.1748 8 54.1795 8C55.1704 8 55.8333 8.69723 55.8333 9.70875ZM53.3253 9.74291C53.3253 10.3854 53.6396 10.8706 54.1522 10.8706C54.6304 10.8706 54.9654 10.3991 54.9654 9.7292C54.9654 9.20981 54.733 8.61521 54.159 8.61521C53.5645 8.61521 53.3253 9.18928 53.3253 9.74291Z" fill="black"/>
<path d="M56.5239 9.0662C56.5239 8.68352 56.5169 8.36224 56.4965 8.07521H57.2345L57.2756 8.57415H57.296C57.4396 8.31438 57.8018 8 58.3553 8C58.9361 8 59.5376 8.37587 59.5376 9.42845V11.4037H58.697V9.52418C58.697 9.04568 58.5194 8.68352 58.0615 8.68352C57.7267 8.68352 57.4944 8.92269 57.4055 9.17557C57.3782 9.25078 57.3713 9.35332 57.3713 9.44897V11.4037H56.524V9.0662H56.5239Z" fill="black"/>
<path d="M62.8112 7.12524V8.07527H63.6108V8.70411H62.8112V10.1735C62.8112 10.5768 62.9206 10.7887 63.2417 10.7887C63.3853 10.7887 63.4946 10.7681 63.5698 10.7477L63.5834 11.3901C63.4604 11.4379 63.2417 11.4722 62.9753 11.4722C62.6676 11.4722 62.408 11.3696 62.2509 11.1988C62.0731 11.0074 61.9911 10.7066 61.9911 10.2693V8.70411H61.5128V8.07527H61.9911V7.32344L62.8112 7.12524Z" fill="black"/>
<path d="M64.2465 6.55103H65.0938V8.5331H65.1075C65.21 8.37587 65.3467 8.24607 65.5244 8.15042C65.6884 8.05468 65.8866 8 66.0984 8C66.6657 8 67.2601 8.37587 67.2601 9.44216V11.4037H66.4196V9.53781C66.4196 9.05258 66.2419 8.69033 65.7773 8.69033C65.4492 8.69033 65.2169 8.90906 65.1281 9.16186C65.1008 9.23025 65.0939 9.31917 65.0939 9.41482V11.4037H64.2465V6.55103H64.2465Z" fill="black"/>
<path d="M68.7503 9.97526C68.7708 10.5768 69.2423 10.8365 69.7754 10.8365C70.1649 10.8365 70.4452 10.7818 70.698 10.686L70.821 11.267C70.5339 11.3833 70.1376 11.472 69.6592 11.472C68.5795 11.472 67.9438 10.8091 67.9438 9.79078C67.9438 8.86809 68.5042 8 69.5704 8C70.6501 8 71.0054 8.88853 71.0054 9.61983C71.0054 9.77706 70.9917 9.90006 70.9781 9.97526H68.7503ZM70.2128 9.38748C70.2196 9.07992 70.0829 8.57415 69.5225 8.57415C69.0031 8.57415 68.7845 9.04576 68.7503 9.38748H70.2128Z" fill="black"/>
</svg>
