<svg width="169" height="36" viewBox="0 0 169 36" fill="none" xmlns="http://www.w3.org/2000/svg">
<path d="M62.9727 23.2578V26H53.8906V23.2578H62.9727ZM55.0391 8.9375V26H51.5234V8.9375H55.0391ZM61.7891 15.8867V18.5586H53.8906V15.8867H61.7891ZM62.9609 8.9375V11.6914H53.8906V8.9375H62.9609ZM68.5391 8.9375V26H65.0234V8.9375H68.5391ZM75.3359 16.2266V18.9688H67.5781V16.2266H75.3359ZM76.1562 8.9375V11.6914H67.5781V8.9375H76.1562ZM81.7109 8.9375V26H78.1953V8.9375H81.7109ZM88.5078 16.2266V18.9688H80.75V16.2266H88.5078ZM89.3281 8.9375V11.6914H80.75V8.9375H89.3281ZM102.816 23.2578V26H93.7344V23.2578H102.816ZM94.8828 8.9375V26H91.3672V8.9375H94.8828ZM101.633 15.8867V18.5586H93.7344V15.8867H101.633ZM102.805 8.9375V11.6914H93.7344V8.9375H102.805ZM114.758 20.3398H118.262C118.191 21.4883 117.875 22.5078 117.312 23.3984C116.758 24.2891 115.98 24.9844 114.98 25.4844C113.988 25.9844 112.793 26.2344 111.395 26.2344C110.301 26.2344 109.32 26.0469 108.453 25.6719C107.586 25.2891 106.844 24.7422 106.227 24.0312C105.617 23.3203 105.152 22.4609 104.832 21.4531C104.512 20.4453 104.352 19.3164 104.352 18.0664V16.8828C104.352 15.6328 104.516 14.5039 104.844 13.4961C105.18 12.4805 105.656 11.6172 106.273 10.9062C106.898 10.1953 107.645 9.64844 108.512 9.26562C109.379 8.88281 110.348 8.69141 111.418 8.69141C112.84 8.69141 114.039 8.94922 115.016 9.46484C116 9.98047 116.762 10.6914 117.301 11.5977C117.848 12.5039 118.176 13.5352 118.285 14.6914H114.77C114.73 14.0039 114.594 13.4219 114.359 12.9453C114.125 12.4609 113.77 12.0977 113.293 11.8555C112.824 11.6055 112.199 11.4805 111.418 11.4805C110.832 11.4805 110.32 11.5898 109.883 11.8086C109.445 12.0273 109.078 12.3594 108.781 12.8047C108.484 13.25 108.262 13.8125 108.113 14.4922C107.973 15.1641 107.902 15.9531 107.902 16.8594V18.0664C107.902 18.9492 107.969 19.7266 108.102 20.3984C108.234 21.0625 108.438 21.625 108.711 22.0859C108.992 22.5391 109.352 22.8828 109.789 23.1172C110.234 23.3438 110.77 23.457 111.395 23.457C112.129 23.457 112.734 23.3398 113.211 23.1055C113.688 22.8711 114.051 22.5234 114.301 22.0625C114.559 21.6016 114.711 21.0273 114.758 20.3398ZM127.848 8.9375V26H124.344V8.9375H127.848ZM133.098 8.9375V11.6914H119.176V8.9375H133.098ZM132.172 24.3711C132.172 23.8711 132.344 23.4531 132.688 23.1172C133.039 22.7812 133.504 22.6133 134.082 22.6133C134.66 22.6133 135.121 22.7812 135.465 23.1172C135.816 23.4531 135.992 23.8711 135.992 24.3711C135.992 24.8711 135.816 25.2891 135.465 25.625C135.121 25.9609 134.66 26.1289 134.082 26.1289C133.504 26.1289 133.039 25.9609 132.688 25.625C132.344 25.2891 132.172 24.8711 132.172 24.3711ZM148.602 8.9375H152.105V20.2109C152.105 21.5234 151.824 22.6289 151.262 23.5273C150.707 24.4258 149.938 25.1016 148.953 25.5547C147.977 26.0078 146.852 26.2344 145.578 26.2344C144.305 26.2344 143.172 26.0078 142.18 25.5547C141.195 25.1016 140.422 24.4258 139.859 23.5273C139.305 22.6289 139.027 21.5234 139.027 20.2109V8.9375H142.543V20.2109C142.543 20.9766 142.664 21.6016 142.906 22.0859C143.148 22.5703 143.496 22.9258 143.949 23.1523C144.41 23.3789 144.953 23.4922 145.578 23.4922C146.219 23.4922 146.762 23.3789 147.207 23.1523C147.66 22.9258 148.004 22.5703 148.238 22.0859C148.48 21.6016 148.602 20.9766 148.602 20.2109V8.9375ZM167.34 23.2578V26H155.246V23.2578H167.34ZM167.164 10.8945L156.805 26H154.332V23.9844L164.773 8.9375H167.164V10.8945ZM165.957 8.9375V11.6914H154.344V8.9375H165.957Z" fill="#0768B5"/>
<path d="M43.2121 26.9457C43.2611 24.7699 41.537 22.9664 39.3612 22.9174C37.1854 22.8684 35.3819 24.5925 35.3329 26.7683C35.2839 28.9441 37.008 30.7476 39.1837 30.7966C41.3595 30.8456 43.1631 29.1215 43.2121 26.9457Z" fill="url(#paint0_linear_301_115)"/>
<path d="M33.9133 28.689C32.0068 30.0615 29.7586 30.8815 27.4161 31.0588C25.0737 31.236 22.7277 30.7637 20.6363 29.6937C18.5449 28.6238 16.7892 26.9976 15.5624 24.9943C14.3355 22.9909 13.685 20.688 13.6825 18.3388C13.6815 17.8426 13.7098 17.3467 13.7675 16.8538C20.441 20.6244 26.4615 20.611 27.128 20.5976H43.7447V18.3388C43.7498 14.5314 42.4979 10.8287 40.1831 7.80569C37.8684 4.78265 34.6204 2.60832 30.9434 1.62024C27.2664 0.632159 23.3661 0.885599 19.8479 2.34122C16.3296 3.79683 13.3904 6.3732 11.4863 9.67037C9.28312 7.67138 7.39507 5.35052 5.88629 2.78661L2.0083 5.09909C4.01199 8.52581 6.61301 11.5661 9.68823 14.0762C8.80778 17.5581 9.03334 21.2277 10.3336 24.5756C11.6338 27.9235 13.9442 30.7834 16.944 32.7584C19.9437 34.7333 23.484 35.7252 27.0732 35.5963C30.6624 35.4674 34.1224 34.2242 36.9728 32.0392C36.2602 31.7208 35.6207 31.2589 35.0944 30.6826C34.568 30.1062 34.166 29.4276 33.9133 28.689ZM26.4526 5.55085C29.4473 5.55416 32.3459 6.60799 34.6434 8.52874C36.941 10.4495 38.4918 13.1154 39.0258 16.0621H27.0385C26.6852 16.0621 21.1567 16.1247 15.1362 12.3988C16.2191 10.3343 17.8457 8.60506 19.8403 7.3981C21.8348 6.19113 24.1213 5.55236 26.4526 5.55085Z" fill="url(#paint1_linear_301_115)"/>
<path d="M7.89016 3.94061C7.89104 4.72106 7.66042 5.48424 7.22747 6.13359C6.79452 6.78295 6.17869 7.28929 5.4579 7.58857C4.73711 7.88785 3.94374 7.96662 3.17818 7.8149C2.41261 7.66318 1.70925 7.2878 1.15707 6.73625C0.604895 6.1847 0.228718 5.48176 0.0761332 4.71637C-0.0764514 3.95098 0.00141271 3.15753 0.299875 2.4364C0.598336 1.71527 1.10398 1.09887 1.75285 0.665178C2.40171 0.231489 3.16463 5.01627e-07 3.94508 0C4.9906 -6.71997e-07 5.99337 0.415026 6.73309 1.15391C7.47281 1.89278 7.88897 2.89508 7.89016 3.94061Z" fill="url(#paint2_linear_301_115)"/>
<defs>
<linearGradient id="paint0_linear_301_115" x1="35.5374" y1="26.8563" x2="46.3573" y2="26.8563" gradientUnits="userSpaceOnUse">
<stop stop-color="#E65F14"/>
<stop offset="0.5" stop-color="#FFBB00"/>
<stop offset="1" stop-color="#FFE900"/>
</linearGradient>
<linearGradient id="paint1_linear_301_115" x1="2.0083" y1="18.3254" x2="43.7447" y2="18.3254" gradientUnits="userSpaceOnUse">
<stop offset="0.15625" stop-color="#0768B5"/>
<stop offset="0.572917" stop-color="#6FBAF7"/>
<stop offset="0.734375" stop-color="#B7D6EE"/>
<stop offset="1" stop-color="#86ABE2"/>
</linearGradient>
<linearGradient id="paint2_linear_301_115" x1="0.00447211" y1="3.94061" x2="7.89016" y2="3.94061" gradientUnits="userSpaceOnUse">
<stop stop-color="#0087F1"/>
<stop offset="0.5" stop-color="#3787FF"/>
<stop offset="1" stop-color="#87F2F9"/>
</linearGradient>
</defs>
</svg>
