<svg width="26" height="26" viewBox="0 0 26 26" fill="none" xmlns="http://www.w3.org/2000/svg">
<path d="M12.225 0.523804C11.3039 1.38208 10.5651 2.41708 10.0527 3.56708C9.54034 4.71707 9.26482 5.95849 9.24261 7.21727C9.2204 8.47606 9.45195 9.72642 9.92347 10.8938C10.395 12.0611 11.0968 13.1215 11.987 14.0118C12.8773 14.902 13.9377 15.6038 15.105 16.0753C16.2724 16.5469 17.5227 16.7784 18.7815 16.7562C20.0403 16.734 21.2817 16.4585 22.4317 15.9461C23.5817 15.4337 24.6167 14.6949 25.475 13.7738C25.0775 20.3176 19.645 25.5001 13.0013 25.5001C6.09625 25.5001 0.5 19.9038 0.5 13.0001C0.5 6.3563 5.6825 0.923804 12.225 0.523804Z" fill="black"/>
</svg>
