<svg width="28" height="28" viewBox="0 0 28 28" fill="none" xmlns="http://www.w3.org/2000/svg">
<path d="M14 21.5C12.0109 21.5 10.1032 20.7098 8.6967 19.3033C7.29018 17.8968 6.5 15.9891 6.5 14C6.5 12.0109 7.29018 10.1032 8.6967 8.6967C10.1032 7.29018 12.0109 6.5 14 6.5C15.9891 6.5 17.8968 7.29018 19.3033 8.6967C20.7098 10.1032 21.5 12.0109 21.5 14C21.5 15.9891 20.7098 17.8968 19.3033 19.3033C17.8968 20.7098 15.9891 21.5 14 21.5ZM12.75 0.25H15.25V4H12.75V0.25ZM12.75 24H15.25V27.75H12.75V24ZM3.39375 5.16125L5.16125 3.39375L7.8125 6.045L6.045 7.8125L3.39375 5.1625V5.16125ZM20.1875 21.955L21.955 20.1875L24.6063 22.8387L22.8387 24.6063L20.1875 21.955ZM22.8387 3.3925L24.6063 5.16125L21.955 7.8125L20.1875 6.045L22.8387 3.39375V3.3925ZM6.045 20.1875L7.8125 21.955L5.16125 24.6063L3.39375 22.8387L6.045 20.1875ZM27.75 12.75V15.25H24V12.75H27.75ZM4 12.75V15.25H0.25V12.75H4Z" fill="#FFF238"/>
</svg>
